<?xml version="1.0" encoding="UTF-8" standalone="no"?>
<svg
   xmlns:dc="http://purl.org/dc/elements/1.1/"
   xmlns:cc="http://creativecommons.org/ns#"
   xmlns:rdf="http://www.w3.org/1999/02/22-rdf-syntax-ns#"
   xmlns:svg="http://www.w3.org/2000/svg"
   xmlns="http://www.w3.org/2000/svg"
   width="6.9333382mm"
   height="6.918766mm"
   viewBox="0 0 6.9333382 6.918766"
   version="1.1"
   id="svg2031">
  <defs
     id="defs2025" />
  <metadata
     id="metadata2028">
    <rdf:RDF>
      <cc:Work
         rdf:about="">
        <dc:format>image/svg+xml</dc:format>
        <dc:type
           rdf:resource="http://purl.org/dc/dcmitype/StillImage" />
        <dc:title></dc:title>
      </cc:Work>
    </rdf:RDF>
  </metadata>
  <g
     id="layer1"
     transform="translate(-13.16428,50.328427)">
    <g
       id="g2005"
       transform="matrix(0.35277776,0,0,0.35277776,8.718469,-55.45985)">
      <path
         d="m 24.029499,33.880478 c -0.06069,-0.06069 -0.09061,-0.09061 -0.120954,-0.181213 l -4.261155,-6.86059 c -0.241905,-0.362433 -0.181642,-0.846247 0.150874,-1.178336 l 2.629348,-2.62935 c 0.362862,-0.36286 0.997546,-0.392779 1.390328,0 0.392774,0.392778 0.36243,0.967201 -0.03035,1.359979 l -2.115612,2.115616 2.840912,4.532986 5.168091,-13.932312 -13.901964,5.198437 2.266491,1.420244 c 0.453468,0.272251 0.57442,0.876591 0.302166,1.329634 -0.271822,0.453468 -0.876162,0.57442 -1.32963,0.302167 l -3.958987,-2.447704 c -0.302168,-0.181217 -0.483812,-0.544077 -0.453466,-0.936855 0.06069,-0.362862 0.272251,-0.694948 0.634683,-0.815901 l 17.739993,-6.558416 c 0.362861,-0.120528 0.755638,-0.02992 0.997545,0.211561 0.241478,0.241907 0.362434,0.665031 0.211563,0.997543 l -6.588331,17.709648 c -0.120955,0.362862 -0.45347,0.574425 -0.815905,0.63469 -0.272249,0.03035 -0.544077,-0.06027 -0.755638,-0.271828 z"
         style="fill:#56b1bf;fill-opacity:1;fill-rule:nonzero;stroke:none"
         id="path2007" />
    </g>
  </g>
</svg>
