<?xml version="1.0" encoding="UTF-8" standalone="no"?>
<svg
   xmlns:dc="http://purl.org/dc/elements/1.1/"
   xmlns:cc="http://creativecommons.org/ns#"
   xmlns:rdf="http://www.w3.org/1999/02/22-rdf-syntax-ns#"
   xmlns:svg="http://www.w3.org/2000/svg"
   xmlns="http://www.w3.org/2000/svg"
   width="6.3006144mm"
   height="6.7878351mm"
   viewBox="0 0 6.3006144 6.7878351"
   version="1.1"
   id="svg2642">
  <defs
     id="defs2636" />
  <metadata
     id="metadata2639">
    <rdf:RDF>
      <cc:Work
         rdf:about="">
        <dc:format>image/svg+xml</dc:format>
        <dc:type
           rdf:resource="http://purl.org/dc/dcmitype/StillImage" />
        <dc:title></dc:title>
      </cc:Work>
    </rdf:RDF>
  </metadata>
  <g
     id="layer1"
     transform="translate(-199.44492,-85.052513)">
    <g
       id="g2001"
       transform="matrix(0.35277776,0,0,0.35277776,160.25202,102.07263)">
      <path
         d="m 128.95747,-42.783936 c -0.0302,-0.48151 -0.43817,-0.873321 -0.90971,-0.873321 h -3.29275 c 0.48489,-0.562843 0.75681,-1.275593 0.75272,-1.988705 -0.004,-0.711155 -0.27653,-1.367771 -0.76605,-1.846428 -0.48591,-0.48595 -1.14521,-0.753612 -1.85636,-0.753612 -0.79553,0 -1.58056,0.328758 -2.15371,0.902263 -0.2126,0.212594 -0.45718,0.53994 -0.70619,0.942406 -0.2307,-0.388615 -0.48879,-0.726963 -0.72234,-0.942581 -0.57332,-0.57333 -1.35836,-0.902088 -2.15369,-0.902088 -0.72378,0 -1.40209,0.276363 -1.85621,0.753612 -0.51313,0.512928 -0.77884,1.217335 -0.7481,1.983193 0.027,0.680782 0.28614,1.330124 0.73458,1.85194 h -3.29271 c -0.49021,0 -0.88895,0.398926 -0.88895,0.889126 v 4.610058 c 0,0.440834 0.32218,0.807594 0.74348,0.877227 v 7.387009 c 0,0.490212 0.39874,0.888943 0.88894,0.888943 h 14.59499 c 0.49039,0 0.8891,-0.398731 0.8891,-0.888943 v -7.408325 c 0.42131,-0.06962 0.7435,-0.436386 0.7435,-0.877041 z m -1.77736,0.904927 v 2.831821 h -6.27373 v -2.831821 z m -6.29505,-1.788014 v -0.17157 c 0.0668,-0.617553 0.5458,-1.707901 1.09497,-2.256897 0.24634,-0.24652 0.58469,-0.393589 0.90529,-0.393589 0.17655,0 0.42395,0.04068 0.60812,0.244923 0.3698,0.369785 0.30176,1.063 -0.14865,1.513424 -0.48326,0.483276 -1.66281,1.073475 -2.35032,1.073475 -0.0471,0 -0.0822,-0.0041 -0.10941,-0.0098 z m 5.5514,6.376766 v 6.485989 h -5.53008 v -6.485989 z m -7.30797,0 v 6.485989 h -5.53028 v -6.485989 z m 0,-6.375694 c -0.0267,0.0046 -0.0632,0.0087 -0.10977,0.0087 -0.68219,0 -1.84537,-0.589127 -2.34997,-1.073475 -0.25149,-0.251484 -0.39942,-0.592861 -0.39589,-0.913444 0.002,-0.167672 0.0455,-0.407086 0.24705,-0.59998 0.14903,-0.148838 0.38774,-0.244923 0.60815,-0.244923 0.3206,0 0.65912,0.147069 0.90547,0.393589 0.54898,0.548996 1.02819,1.639344 1.09496,2.256897 v 0.172642 z m 0,1.786942 v 2.831821 h -6.27392 v -2.831821 z"
         style="fill:#56b1bf;fill-opacity:1;fill-rule:nonzero;stroke:none"
         id="path2003" />
    </g>
  </g>
</svg>
